<svg id="Capa_1" enable-background="new 0 0 495.4 495.4" height="512" viewBox="0 0 495.4 495.4" width="512" xmlns="http://www.w3.org/2000/svg"><g><path d="m495.35 267.94c-11.38 136.521-131.278 237.969-267.8 226.588-51.415-4.286-100.215-24.497-139.604-57.82l69.525-69.525c66.246 50.054 160.525 36.928 210.579-29.317 15.444-20.44 25.409-44.488 28.948-69.861z" fill="#69b0ee"/><path d="m495.35 226.591h-98.351c-9.197-66.613-61.569-118.984-128.181-128.181v-98.41c120.699 10.106 216.458 105.89 226.532 226.591z" fill="#ef5261"/><path d="m227.469 0v98.41c-82.191 11.328-139.636 87.141-128.307 169.331 3.515 25.503 13.525 49.675 29.07 70.197l-69.525 69.525c-88.479-104.641-75.377-261.196 29.264-349.676 39.367-33.287 88.125-53.485 139.498-57.787z" fill="#f6c863"/></g></svg>